<?xml version="1.0" encoding="UTF-8" standalone="no"?><svg xmlns:rdf="http://www.w3.org/1999/02/22-rdf-syntax-ns#" xmlns="http://www.w3.org/2000/svg" height="48" viewBox="0 0 48 48" width="48" version="1.1" xmlns:cc="http://creativecommons.org/ns#" xmlns:dc="http://purl.org/dc/elements/1.1/"><metadata><rdf:RDF><cc:Work rdf:about=""><dc:format>image/svg+xml</dc:format><dc:type rdf:resource="http://purl.org/dc/dcmitype/StillImage"/><dc:title/></cc:Work></rdf:RDF></metadata>
<g transform="matrix(1.3333 0 0 -1.3333 0 48)"><g fill="#000000" transform="matrix(.49050 0 0 .49050 7.4918 -124.25)"><path d="m12.003 281.58c0.5727 0 1.1157 0.051 1.6262 0.165 0.5188 0.114 0.9785 0.293 1.366 0.559 0.3879 0.255 0.709 0.606 0.9426 1.051 0.2344 0.441 0.3469 1.014 0.3469 1.707 0 1.357-0.3821 2.321-1.1418 2.906-0.761 0.577-1.7754 0.864-3.0235 0.864h-6.3034v-7.252zm-0.3203 11.21c1.0278 0 1.8781 0.244 2.552 0.739 0.6672 0.486 0.9902 1.291 0.9902 2.395 0 0.613-0.1074 1.119-0.323 1.512-0.2239 0.393-0.52 0.701-0.8938 0.916-0.3711 0.224-0.7898 0.379-1.2765 0.462-0.4774 0.094-0.9786 0.13-1.4911 0.13h-5.4254v-6.154zm0.75 10.64c1.2602 0 2.3965-0.109 3.436-0.334 1.0332-0.219 1.9148-0.585 2.6597-1.086 0.7336-0.502 1.3078-1.169 1.7192-2.009 0.4011-0.828 0.6023-1.864 0.6023-3.09 0-1.326-0.3008-2.433-0.9023-3.319-0.6067-0.883-1.4969-1.608-2.6875-2.172 1.6211-0.465 2.8215-1.285 3.6172-2.452 0.8-1.174 1.1914-2.58 1.1914-4.227 0-1.335-0.2559-2.485-0.7664-3.452-0.5161-0.979-1.218-1.773-2.0832-2.385-0.8719-0.617-1.8743-1.071-2.9961-1.366-1.1094-0.294-2.2618-0.443-3.4414-0.443h-12.765v26.335h12.415" fill="#000000"/><path d="m36.352 291.69c-0.6219 0.689-1.677 1.062-2.9629 1.062-0.8367 0-1.5293-0.141-2.084-0.428-0.5418-0.283-0.9863-0.636-1.3262-1.051-0.3379-0.422-0.5683-0.867-0.7019-1.343-0.1352-0.464-0.2153-0.885-0.2395-1.257h8.5215c-0.125 1.335-0.582 2.323-1.207 3.017zm-6.018-10.02c0.7844-0.766 1.918-1.152 3.3867-1.152 1.0566 0 1.9695 0.267 2.7356 0.8 0.7585 0.531 1.2207 1.1 1.3992 1.69h4.6125c-0.7414-2.295-1.8664-3.934-3.4004-4.92-1.5168-0.991-3.3664-1.485-5.5215-1.485-1.5023 0-2.8535 0.243-4.0676 0.723-1.2129 0.484-2.2265 1.164-3.0793 2.05-0.8308 0.89-1.4762 1.942-1.9363 3.177-0.4551 1.23-0.6848 2.59-0.6848 4.065 0 1.426 0.2383 2.758 0.7043 3.989 0.4754 1.235 1.1328 2.301 1.9973 3.195 0.866 0.899 1.8933 1.608 3.0894 2.126 1.1965 0.517 2.5161 0.777 3.977 0.777 1.6133 0 3.0262-0.311 4.2371-0.943 1.207-0.624 2.1965-1.469 2.9734-2.527 0.7778-1.057 1.3301-2.264 1.6758-3.62 0.343-1.352 0.4629-2.765 0.3645-4.244h-13.759c0-1.508 0.5098-2.935 1.2969-3.701" fill="#000000"/><path d="m27.966 301.66v-2.598h10.675v2.598h-10.675" fill="#000000"/></g></g>
</svg>
