<?xml version="1.0" encoding="UTF-8" standalone="no"?>
<svg
   height="48"
   viewBox="0 0 48 48"
   width="48"
   version="1.1"
   id="svg14"
   sodipodi:docname="instagram - Copy.svg"
   inkscape:version="1.1 (c68e22c387, 2021-05-23)"
   xmlns:inkscape="http://www.inkscape.org/namespaces/inkscape"
   xmlns:sodipodi="http://sodipodi.sourceforge.net/DTD/sodipodi-0.dtd"
   xmlns="http://www.w3.org/2000/svg"
   xmlns:svg="http://www.w3.org/2000/svg"
   xmlns:rdf="http://www.w3.org/1999/02/22-rdf-syntax-ns#"
   xmlns:cc="http://creativecommons.org/ns#"
   xmlns:dc="http://purl.org/dc/elements/1.1/">
  <defs
     id="defs18" />
  <sodipodi:namedview
     id="namedview16"
     pagecolor="#505050"
     bordercolor="#ffffff"
     borderopacity="1"
     inkscape:pageshadow="0"
     inkscape:pageopacity="0"
     inkscape:pagecheckerboard="1"
     showgrid="false"
     inkscape:zoom="14.481547"
     inkscape:cx="15.502488"
     inkscape:cy="23.029308"
     inkscape:window-width="1920"
     inkscape:window-height="1001"
     inkscape:window-x="-9"
     inkscape:window-y="-9"
     inkscape:window-maximized="1"
     inkscape:current-layer="svg14" />
  <metadata
     id="metadata2">
    <rdf:RDF>
      <cc:Work
         rdf:about="">
        <dc:format>image/svg+xml</dc:format>
        <dc:type
           rdf:resource="http://purl.org/dc/dcmitype/StillImage" />
      </cc:Work>
    </rdf:RDF>
  </metadata>
  <path
     d="m 14.644503,12.52945 v 17.871589 h 5.956189 v 3.387343 c 0.09211,-0.08774 0.143833,-0.134765 0.193205,-0.184136 1.004397,-1.001879 2.011398,-2.001322 3.00975,-3.009414 0.142573,-0.143833 0.284727,-0.202021 0.487,-0.20135 2.081509,0.0068 4.163102,0.0081 6.244611,-0.0039 0.152902,-9.24e-4 0.342916,-0.07993 0.45182,-0.187327 1.297605,-1.279889 2.580768,-2.574472 3.875183,-3.857635 0.145093,-0.143833 0.197655,-0.287247 0.197403,-0.487505 -0.005,-4.339178 -0.0037,-8.678356 -0.0037,-13.017534 V 12.529366 H 14.644587 Z m 16.11402,12.711899 H 28.28649 v -7.564048 h 2.472033 z m -6.771495,-7.563544 v 7.553552 h -2.516955 v -7.553552 z m -6.759825,20.293999 v -3.34662 h -6.778884 c -0.0068,-0.140138 -0.01662,-0.248706 -0.01662,-0.357442 l -5.88e-4,-5.017788 v -3.837315 c 5.88e-4,-3.344941 0.0017,-6.690049 0.0036,-10.035577 8.4e-5,-0.182122 0.03241,-0.3718 0.08926,-0.544853 0.499512,-1.520115 1.012206,-3.035863 1.509031,-4.556901 0.06449,-0.196984 0.145513,-0.267599 0.355679,-0.269614 h 0.01008 c 8.295725,0.0065 16.591365,0.0055 24.887089,0.0055 0.08128,-1.68e-4 0.162642,0 0.278178,0 v 0.351312 c 0,5.426869 -0.0014,10.853822 0.0049,16.280692 v 0.01058 c -0.0019,0.220746 -0.0691,0.374655 -0.226287,0.531167 -2.406876,2.39722 -4.808798,4.79931 -7.206018,7.206102 -0.159031,0.159703 -0.314955,0.226371 -0.541578,0.22486 -1.460163,-0.01033 -2.920494,0.0016 -4.380825,-0.01134 -0.279774,-0.0025 -0.479528,0.07061 -0.678695,0.274148 -0.963254,0.984497 -1.940782,1.955224 -2.920913,2.923012 -0.09312,0.09203 -0.239555,0.183046 -0.362144,0.184137 -0.61169,0.006 -1.223296,0.0081 -1.834986,0.0084 H 19.0503 c -0.570967,-3.36e-4 -1.141849,-0.0015 -1.712732,-0.0022 -0.0288,0 -0.05752,-0.01033 -0.110499,-0.02049 z"
     fill="#6441a5"
     id="path2"
     style="stroke-width:1.80962" />
</svg>
