<?xml version="1.0" encoding="UTF-8" standalone="no"?><svg xmlns:rdf="http://www.w3.org/1999/02/22-rdf-syntax-ns#" xmlns="http://www.w3.org/2000/svg" height="48" viewBox="0 0 48 48" width="48" version="1.1" xmlns:cc="http://creativecommons.org/ns#" xmlns:dc="http://purl.org/dc/elements/1.1/"><metadata><rdf:RDF><cc:Work rdf:about=""><dc:format>image/svg+xml</dc:format><dc:type rdf:resource="http://purl.org/dc/dcmitype/StillImage"/><dc:title/></cc:Work></rdf:RDF></metadata>
<g transform="matrix(1.3333 0 0 -1.3333 0 48)"><path d="m18 25.35s-6.5668-0.000173-8.2045-0.43908c-0.9036-0.241-1.6154-0.953-1.8569-1.856-0.4388-1.638-0.4386-5.055-0.4386-5.055s-0.000154-3.4172 0.43857-5.0547c0.24149-0.90355 0.95328-1.6151 1.8568-1.8566 1.6377-0.4389 8.2045-0.43882 8.2045-0.43882s6.5668-0.000074 8.2045 0.43882c0.90355 0.24149 1.6153 0.95303 1.8568 1.8566 0.43872 1.6375 0.43882 5.0547 0.43882 5.0547s-0.000099 3.417-0.43882 5.0547c-0.24149 0.90355-0.95328 1.6148-1.8568 1.8563-1.6377 0.4389-8.2045 0.43908-8.2045 0.43908zm-2.1-4.2 5.456-3.15-5.456-3.15z" fill="#000000"/></g>
</svg>
